name C:\Users\antoi\Documents\MyRepositories\upper-imu-dc\Results\main_tracking\Case_70\ABD01_angularVelocities_bodyFrame.mot
datacolumns 4
datarows 47
range 8.06000000 8.52000000
endheader 
time	radius_imu_x	radius_imu_y	radius_imu_z	
          8.06000000	          1.48006921	          0.12320563	          0.12644115	
          8.07000000	          1.47479515	          0.09452569	          0.10180126	
          8.08000000	          1.46837857	          0.06784814	          0.07791363	
          8.09000000	          1.46088009	          0.04325994	          0.05505903	
          8.10000000	          1.45236869	          0.02081245	          0.03348328	
          8.11000000	          1.44292584	          0.00052117	          0.01339579	
          8.12000000	          1.43264922	         -0.01763547	         -0.00502960	
          8.13000000	          1.42165554	         -0.03371626	         -0.02165083	
          8.14000000	          1.41008177	         -0.04781435	         -0.03635240	
          8.15000000	          1.39808424	         -0.06005092	         -0.04904060	
          8.16000000	          1.38583563	         -0.07056572	         -0.05963999	
          8.17000000	          1.37352056	         -0.07950642	         -0.06809149	
          8.18000000	          1.36133031	         -0.08701905	         -0.07435271	
          8.19000000	          1.34945668	         -0.09324212	         -0.07840008	
          8.20000000	          1.33808543	         -0.09830516	         -0.08023197	
          8.21000000	          1.32739056	         -0.10233111	         -0.07987385	
          8.22000000	          1.31753016	         -0.10544019	         -0.07738389	
          8.23000000	          1.30864383	         -0.10775385	         -0.07285496	
          8.24000000	          1.30085236	         -0.10939756	         -0.06641365	
          8.25000000	          1.29425854	         -0.11050024	         -0.05821687	
          8.26000000	          1.28894825	         -0.11118715	         -0.04844536	
          8.27000000	          1.28499052	         -0.11156671	         -0.03729526	
          8.28000000	          1.28243587	         -0.11171575	         -0.02496886	
          8.29000000	          1.28131321	         -0.11166892	         -0.01166626	
          8.30000000	          1.28162651	         -0.11141662	          0.00242054	
          8.31000000	          1.28335260	         -0.11091258	          0.01711037	
          8.32000000	          1.28644155	         -0.11008904	          0.03223304	
          8.33000000	          1.29081950	         -0.10887659	          0.04762811	
          8.34000000	          1.29639329	         -0.10722691	          0.06314192	
          8.35000000	          1.30305758	         -0.10513614	          0.07862619	
          8.36000000	          1.31070198	         -0.10266658	          0.09393861	
          8.37000000	          1.31921382	         -0.09996367	          0.10894094	
          8.38000000	          1.32847739	         -0.09726284	          0.12349699	
          8.39000000	          1.33837215	         -0.09488372	          0.13747074	
          8.40000000	          1.34877135	         -0.09321335	          0.15072434	
          8.41000000	          1.35954185	         -0.09268064	          0.16311696	
          8.42000000	          1.37054666	         -0.09372455	          0.17450401	
          8.43000000	          1.38164987	         -0.09675899	          0.18473714	
          8.44000000	          1.39272317	         -0.10213850	          0.19366619	
          8.45000000	          1.40365281	         -0.11013049	          0.20114318	
          8.46000000	          1.41434492	         -0.12089812	          0.20702795	
          8.47000000	          1.42472847	         -0.13449499	          0.21119579	
          8.48000000	          1.43475533	         -0.15087062	          0.21354546	
          8.49000000	          1.44439787	         -0.16988396	          0.21400712	
          8.50000000	          1.45364443	         -0.19132205	          0.21254949	
          8.51000000	          1.46249362	         -0.21492178	          0.20918514	
          8.52000000	          1.47094745	         -0.24039274	          0.20397321	
